<mxfile host="app.diagrams.net" modified="2024-01-25T16:28:33.181Z" agent="Mozilla/5.0 (Windows NT 10.0; Win64; x64) AppleWebKit/537.36 (KHTML, like Gecko) Chrome/120.0.0.0 Safari/537.36" etag="Z35cjj0EZFQleh_G14q7" version="22.1.22" type="github">
  <diagram name="Page-1" id="yMXlSu5QyA-v2mJkXryc">
    <mxGraphModel dx="1985" dy="888" grid="1" gridSize="10" guides="1" tooltips="1" connect="1" arrows="1" fold="1" page="1" pageScale="1" pageWidth="827" pageHeight="1169" math="0" shadow="0">
      <root>
        <mxCell id="0" />
        <mxCell id="1" parent="0" />
        <mxCell id="9iRX2Rlh8tkq5A0p4BJl-14" value="" style="rounded=0;whiteSpace=wrap;html=1;shadow=1;" vertex="1" parent="1">
          <mxGeometry x="240" y="80" width="500" height="900" as="geometry" />
        </mxCell>
        <mxCell id="9iRX2Rlh8tkq5A0p4BJl-1" value="&lt;font style=&quot;font-size: 18px;&quot;&gt;Enter Coursework Marks&lt;/font&gt;" style="ellipse;whiteSpace=wrap;html=1;" vertex="1" parent="1">
          <mxGeometry x="390" y="110" width="200" height="90" as="geometry" />
        </mxCell>
        <mxCell id="9iRX2Rlh8tkq5A0p4BJl-2" value="&lt;span style=&quot;font-size: 18px;&quot;&gt;Produce Letter Grades&lt;/span&gt;" style="ellipse;whiteSpace=wrap;html=1;" vertex="1" parent="1">
          <mxGeometry x="390" y="590" width="200" height="90" as="geometry" />
        </mxCell>
        <mxCell id="9iRX2Rlh8tkq5A0p4BJl-3" value="&lt;span style=&quot;font-size: 18px;&quot;&gt;Enter Exam Marks&lt;/span&gt;" style="ellipse;whiteSpace=wrap;html=1;" vertex="1" parent="1">
          <mxGeometry x="390" y="270" width="200" height="90" as="geometry" />
        </mxCell>
        <mxCell id="9iRX2Rlh8tkq5A0p4BJl-4" value="&lt;span style=&quot;font-size: 18px;&quot;&gt;Computer Average&lt;/span&gt;" style="ellipse;whiteSpace=wrap;html=1;" vertex="1" parent="1">
          <mxGeometry x="390" y="440" width="200" height="90" as="geometry" />
        </mxCell>
        <mxCell id="9iRX2Rlh8tkq5A0p4BJl-5" value="&lt;span style=&quot;font-size: 18px;&quot;&gt;Display Information&lt;/span&gt;" style="ellipse;whiteSpace=wrap;html=1;" vertex="1" parent="1">
          <mxGeometry x="390" y="760" width="200" height="90" as="geometry" />
        </mxCell>
        <mxCell id="9iRX2Rlh8tkq5A0p4BJl-6" value="&lt;font style=&quot;font-size: 18px;&quot;&gt;Teacher&lt;/font&gt;" style="shape=umlActor;verticalLabelPosition=bottom;verticalAlign=top;html=1;outlineConnect=0;" vertex="1" parent="1">
          <mxGeometry x="60" y="380" width="110" height="160" as="geometry" />
        </mxCell>
        <mxCell id="9iRX2Rlh8tkq5A0p4BJl-9" value="" style="endArrow=none;html=1;rounded=0;entryX=0;entryY=0.5;entryDx=0;entryDy=0;" edge="1" parent="1" source="9iRX2Rlh8tkq5A0p4BJl-6" target="9iRX2Rlh8tkq5A0p4BJl-1">
          <mxGeometry width="50" height="50" relative="1" as="geometry">
            <mxPoint x="210" y="300" as="sourcePoint" />
            <mxPoint x="260" y="250" as="targetPoint" />
          </mxGeometry>
        </mxCell>
        <mxCell id="9iRX2Rlh8tkq5A0p4BJl-10" value="" style="endArrow=none;html=1;rounded=0;entryX=0;entryY=0.5;entryDx=0;entryDy=0;" edge="1" parent="1" source="9iRX2Rlh8tkq5A0p4BJl-6" target="9iRX2Rlh8tkq5A0p4BJl-4">
          <mxGeometry width="50" height="50" relative="1" as="geometry">
            <mxPoint x="140" y="654" as="sourcePoint" />
            <mxPoint x="360" y="410" as="targetPoint" />
          </mxGeometry>
        </mxCell>
        <mxCell id="9iRX2Rlh8tkq5A0p4BJl-11" value="" style="endArrow=none;html=1;rounded=0;entryX=0;entryY=0.5;entryDx=0;entryDy=0;" edge="1" parent="1" source="9iRX2Rlh8tkq5A0p4BJl-6" target="9iRX2Rlh8tkq5A0p4BJl-5">
          <mxGeometry width="50" height="50" relative="1" as="geometry">
            <mxPoint x="150" y="829" as="sourcePoint" />
            <mxPoint x="370" y="585" as="targetPoint" />
          </mxGeometry>
        </mxCell>
        <mxCell id="9iRX2Rlh8tkq5A0p4BJl-12" value="" style="endArrow=none;html=1;rounded=0;entryX=0;entryY=0.5;entryDx=0;entryDy=0;" edge="1" parent="1" source="9iRX2Rlh8tkq5A0p4BJl-6" target="9iRX2Rlh8tkq5A0p4BJl-2">
          <mxGeometry width="50" height="50" relative="1" as="geometry">
            <mxPoint x="170" y="680" as="sourcePoint" />
            <mxPoint x="390" y="436" as="targetPoint" />
          </mxGeometry>
        </mxCell>
        <mxCell id="9iRX2Rlh8tkq5A0p4BJl-13" value="" style="endArrow=none;html=1;rounded=0;entryX=0;entryY=0.5;entryDx=0;entryDy=0;exitX=1;exitY=0.3333333333333333;exitDx=0;exitDy=0;exitPerimeter=0;" edge="1" parent="1" source="9iRX2Rlh8tkq5A0p4BJl-6" target="9iRX2Rlh8tkq5A0p4BJl-3">
          <mxGeometry width="50" height="50" relative="1" as="geometry">
            <mxPoint x="210" y="439" as="sourcePoint" />
            <mxPoint x="430" y="195" as="targetPoint" />
          </mxGeometry>
        </mxCell>
        <mxCell id="9iRX2Rlh8tkq5A0p4BJl-15" value="&lt;font style=&quot;font-size: 18px;&quot;&gt;Course Marks System&lt;/font&gt;" style="text;html=1;strokeColor=none;fillColor=none;align=center;verticalAlign=middle;whiteSpace=wrap;rounded=0;" vertex="1" parent="1">
          <mxGeometry x="370" y="910" width="230" height="30" as="geometry" />
        </mxCell>
      </root>
    </mxGraphModel>
  </diagram>
</mxfile>
